<?xml version="1.0"?>
<svg width="16" height="16" xmlns="http://www.w3.org/2000/svg" xmlns:svg="http://www.w3.org/2000/svg">
 <!-- Created with SVG-edit - https://github.com/SVG-Edit/svgedit-->
 <g class="layer">
  <title>Layer 1</title>
  <path clip-rule="evenodd" d="m9.647053,6.812355c0.236665,0.140102 0.292705,0.054963 0.375473,0.007544c0.082984,-0.047635 3.167384,-1.81292 3.363742,-1.909052c0.196574,-0.096132 0.283437,-0.412762 0.024572,-0.562564c-0.258865,-0.150232 -5.476912,-3.172988 -5.224944,-3.043447c0.271367,0.13924 -0.259081,-0.178684 -0.566012,-0.03772c-0.307147,0.140964 -5.007247,2.843425 -5.340474,3.033748c-0.333012,0.190323 -0.437981,0.373102 -0.436903,0.626579c0.000862,0.253477 -0.016812,5.874155 0,6.207813c0.016812,0.333658 0.148724,0.442291 0.324606,0.562348c0.175882,0.120272 4.936118,2.910889 5.296288,3.105954c0.36017,0.195496 0.596619,0.128678 0.830482,-0.008622c0.233863,-0.137731 4.898614,-2.802687 5.085273,-2.921451c0.186659,-0.118763 0.35629,-0.424401 -0.03384,-0.6449c-0.390346,-0.220284 -3.185489,-1.873703 -3.29326,-1.927588s-0.171571,-0.054963 -0.327623,0.032547c-0.156052,0.087941 -1.556641,0.87553 -1.727135,0.97511s-0.19485,0.054748 -0.27654,0.007113c-0.081475,-0.04785 -1.527112,-0.891264 -1.693941,-0.985241s-0.186659,-0.141395 -0.18709,-0.269427c-0.000216,-0.127816 -0.00388,-1.750413 0.004957,-1.939443c0.008622,-0.18903 0.035564,-0.231492 0.207351,-0.333658c0.171787,-0.102167 1.443051,-0.857424 1.544571,-0.92532c0.101305,-0.067896 0.314475,-0.074362 0.480873,0.023278c0.166398,0.097425 1.332909,0.78608 1.569574,0.926398" fill="#000000" fill-rule="evenodd" id="svg_1"/>
 </g>
</svg>